<svg xmlns="http://www.w3.org/2000/svg" width="1200" height="800" viewBox="0 0 1200 800" role="img" aria-label="Isometric Dots preview">
  <rect width="1200" height="800" fill="#0f172a"/>
  <rect x="190" y="80" width="820" height="640" rx="8" fill="#ffffff"/>
  <g transform="translate(190 80)"><circle cx="84" cy="55" r="5" fill="#38bdf8" fill-opacity="0.55"/><circle cx="142" cy="55" r="5" fill="#38bdf8" fill-opacity="0.55"/><circle cx="200" cy="55" r="5" fill="#38bdf8" fill-opacity="0.55"/><circle cx="258" cy="55" r="5" fill="#38bdf8" fill-opacity="0.55"/><circle cx="316" cy="55" r="5" fill="#38bdf8" fill-opacity="0.55"/><circle cx="374" cy="55" r="5" fill="#38bdf8" fill-opacity="0.55"/><circle cx="432" cy="55" r="5" fill="#38bdf8" fill-opacity="0.55"/><circle cx="490" cy="55" r="5" fill="#38bdf8" fill-opacity="0.55"/><circle cx="548" cy="55" r="5" fill="#38bdf8" fill-opacity="0.55"/><circle cx="606" cy="55" r="5" fill="#38bdf8" fill-opacity="0.55"/><circle cx="664" cy="55" r="5" fill="#38bdf8" fill-opacity="0.55"/><circle cx="722" cy="55" r="5" fill="#38bdf8" fill-opacity="0.55"/><circle cx="780" cy="55" r="5" fill="#38bdf8" fill-opacity="0.55"/><circle cx="55" cy="113" r="5" fill="#38bdf8" fill-opacity="0.55"/><circle cx="113" cy="113" r="5" fill="#38bdf8" fill-opacity="0.55"/><circle cx="171" cy="113" r="5" fill="#38bdf8" fill-opacity="0.55"/><circle cx="229" cy="113" r="5" fill="#38bdf8" fill-opacity="0.55"/><circle cx="287" cy="113" r="5" fill="#38bdf8" fill-opacity="0.55"/><circle cx="345" cy="113" r="5" fill="#38bdf8" fill-opacity="0.55"/><circle cx="403" cy="113" r="5" fill="#38bdf8" fill-opacity="0.55"/><circle cx="461" cy="113" r="5" fill="#38bdf8" fill-opacity="0.55"/><circle cx="519" cy="113" r="5" fill="#38bdf8" fill-opacity="0.55"/><circle cx="577" cy="113" r="5" fill="#38bdf8" fill-opacity="0.55"/><circle cx="635" cy="113" r="5" fill="#38bdf8" fill-opacity="0.55"/><circle cx="693" cy="113" r="5" fill="#38bdf8" fill-opacity="0.55"/><circle cx="751" cy="113" r="5" fill="#38bdf8" fill-opacity="0.55"/><circle cx="84" cy="171" r="5" fill="#38bdf8" fill-opacity="0.55"/><circle cx="142" cy="171" r="5" fill="#38bdf8" fill-opacity="0.55"/><circle cx="200" cy="171" r="5" fill="#38bdf8" fill-opacity="0.55"/><circle cx="258" cy="171" r="5" fill="#38bdf8" fill-opacity="0.55"/><circle cx="316" cy="171" r="5" fill="#38bdf8" fill-opacity="0.55"/><circle cx="374" cy="171" r="5" fill="#38bdf8" fill-opacity="0.55"/><circle cx="432" cy="171" r="5" fill="#38bdf8" fill-opacity="0.55"/><circle cx="490" cy="171" r="5" fill="#38bdf8" fill-opacity="0.55"/><circle cx="548" cy="171" r="5" fill="#38bdf8" fill-opacity="0.55"/><circle cx="606" cy="171" r="5" fill="#38bdf8" fill-opacity="0.55"/><circle cx="664" cy="171" r="5" fill="#38bdf8" fill-opacity="0.55"/><circle cx="722" cy="171" r="5" fill="#38bdf8" fill-opacity="0.55"/><circle cx="780" cy="171" r="5" fill="#38bdf8" fill-opacity="0.55"/><circle cx="55" cy="229" r="5" fill="#38bdf8" fill-opacity="0.55"/><circle cx="113" cy="229" r="5" fill="#38bdf8" fill-opacity="0.55"/><circle cx="171" cy="229" r="5" fill="#38bdf8" fill-opacity="0.55"/><circle cx="229" cy="229" r="5" fill="#38bdf8" fill-opacity="0.55"/><circle cx="287" cy="229" r="5" fill="#38bdf8" fill-opacity="0.55"/><circle cx="345" cy="229" r="5" fill="#38bdf8" fill-opacity="0.55"/><circle cx="403" cy="229" r="5" fill="#38bdf8" fill-opacity="0.55"/><circle cx="461" cy="229" r="5" fill="#38bdf8" fill-opacity="0.55"/><circle cx="519" cy="229" r="5" fill="#38bdf8" fill-opacity="0.55"/><circle cx="577" cy="229" r="5" fill="#38bdf8" fill-opacity="0.55"/><circle cx="635" cy="229" r="5" fill="#38bdf8" fill-opacity="0.55"/><circle cx="693" cy="229" r="5" fill="#38bdf8" fill-opacity="0.55"/><circle cx="751" cy="229" r="5" fill="#38bdf8" fill-opacity="0.55"/><circle cx="84" cy="287" r="5" fill="#38bdf8" fill-opacity="0.55"/><circle cx="142" cy="287" r="5" fill="#38bdf8" fill-opacity="0.55"/><circle cx="200" cy="287" r="5" fill="#38bdf8" fill-opacity="0.55"/><circle cx="258" cy="287" r="5" fill="#38bdf8" fill-opacity="0.55"/><circle cx="316" cy="287" r="5" fill="#38bdf8" fill-opacity="0.55"/><circle cx="374" cy="287" r="5" fill="#38bdf8" fill-opacity="0.55"/><circle cx="432" cy="287" r="5" fill="#38bdf8" fill-opacity="0.55"/><circle cx="490" cy="287" r="5" fill="#38bdf8" fill-opacity="0.55"/><circle cx="548" cy="287" r="5" fill="#38bdf8" fill-opacity="0.55"/><circle cx="606" cy="287" r="5" fill="#38bdf8" fill-opacity="0.55"/><circle cx="664" cy="287" r="5" fill="#38bdf8" fill-opacity="0.55"/><circle cx="722" cy="287" r="5" fill="#38bdf8" fill-opacity="0.55"/><circle cx="780" cy="287" r="5" fill="#38bdf8" fill-opacity="0.55"/><circle cx="55" cy="345" r="5" fill="#38bdf8" fill-opacity="0.55"/><circle cx="113" cy="345" r="5" fill="#38bdf8" fill-opacity="0.55"/><circle cx="171" cy="345" r="5" fill="#38bdf8" fill-opacity="0.55"/><circle cx="229" cy="345" r="5" fill="#38bdf8" fill-opacity="0.55"/><circle cx="287" cy="345" r="5" fill="#38bdf8" fill-opacity="0.55"/><circle cx="345" cy="345" r="5" fill="#38bdf8" fill-opacity="0.55"/><circle cx="403" cy="345" r="5" fill="#38bdf8" fill-opacity="0.55"/><circle cx="461" cy="345" r="5" fill="#38bdf8" fill-opacity="0.55"/><circle cx="519" cy="345" r="5" fill="#38bdf8" fill-opacity="0.55"/><circle cx="577" cy="345" r="5" fill="#38bdf8" fill-opacity="0.55"/><circle cx="635" cy="345" r="5" fill="#38bdf8" fill-opacity="0.55"/><circle cx="693" cy="345" r="5" fill="#38bdf8" fill-opacity="0.55"/><circle cx="751" cy="345" r="5" fill="#38bdf8" fill-opacity="0.55"/><circle cx="84" cy="403" r="5" fill="#38bdf8" fill-opacity="0.55"/><circle cx="142" cy="403" r="5" fill="#38bdf8" fill-opacity="0.55"/><circle cx="200" cy="403" r="5" fill="#38bdf8" fill-opacity="0.55"/><circle cx="258" cy="403" r="5" fill="#38bdf8" fill-opacity="0.55"/><circle cx="316" cy="403" r="5" fill="#38bdf8" fill-opacity="0.55"/><circle cx="374" cy="403" r="5" fill="#38bdf8" fill-opacity="0.55"/><circle cx="432" cy="403" r="5" fill="#38bdf8" fill-opacity="0.55"/><circle cx="490" cy="403" r="5" fill="#38bdf8" fill-opacity="0.55"/><circle cx="548" cy="403" r="5" fill="#38bdf8" fill-opacity="0.55"/><circle cx="606" cy="403" r="5" fill="#38bdf8" fill-opacity="0.55"/><circle cx="664" cy="403" r="5" fill="#38bdf8" fill-opacity="0.55"/><circle cx="722" cy="403" r="5" fill="#38bdf8" fill-opacity="0.55"/><circle cx="780" cy="403" r="5" fill="#38bdf8" fill-opacity="0.55"/><circle cx="55" cy="461" r="5" fill="#38bdf8" fill-opacity="0.55"/><circle cx="113" cy="461" r="5" fill="#38bdf8" fill-opacity="0.55"/><circle cx="171" cy="461" r="5" fill="#38bdf8" fill-opacity="0.55"/><circle cx="229" cy="461" r="5" fill="#38bdf8" fill-opacity="0.55"/><circle cx="287" cy="461" r="5" fill="#38bdf8" fill-opacity="0.55"/><circle cx="345" cy="461" r="5" fill="#38bdf8" fill-opacity="0.55"/><circle cx="403" cy="461" r="5" fill="#38bdf8" fill-opacity="0.55"/><circle cx="461" cy="461" r="5" fill="#38bdf8" fill-opacity="0.55"/><circle cx="519" cy="461" r="5" fill="#38bdf8" fill-opacity="0.55"/><circle cx="577" cy="461" r="5" fill="#38bdf8" fill-opacity="0.55"/><circle cx="635" cy="461" r="5" fill="#38bdf8" fill-opacity="0.55"/><circle cx="693" cy="461" r="5" fill="#38bdf8" fill-opacity="0.55"/><circle cx="751" cy="461" r="5" fill="#38bdf8" fill-opacity="0.55"/><circle cx="84" cy="519" r="5" fill="#38bdf8" fill-opacity="0.55"/><circle cx="142" cy="519" r="5" fill="#38bdf8" fill-opacity="0.55"/><circle cx="200" cy="519" r="5" fill="#38bdf8" fill-opacity="0.55"/><circle cx="258" cy="519" r="5" fill="#38bdf8" fill-opacity="0.55"/><circle cx="316" cy="519" r="5" fill="#38bdf8" fill-opacity="0.55"/><circle cx="374" cy="519" r="5" fill="#38bdf8" fill-opacity="0.55"/><circle cx="432" cy="519" r="5" fill="#38bdf8" fill-opacity="0.55"/><circle cx="490" cy="519" r="5" fill="#38bdf8" fill-opacity="0.55"/><circle cx="548" cy="519" r="5" fill="#38bdf8" fill-opacity="0.55"/><circle cx="606" cy="519" r="5" fill="#38bdf8" fill-opacity="0.55"/><circle cx="664" cy="519" r="5" fill="#38bdf8" fill-opacity="0.55"/><circle cx="722" cy="519" r="5" fill="#38bdf8" fill-opacity="0.55"/><circle cx="780" cy="519" r="5" fill="#38bdf8" fill-opacity="0.55"/><circle cx="55" cy="577" r="5" fill="#38bdf8" fill-opacity="0.55"/><circle cx="113" cy="577" r="5" fill="#38bdf8" fill-opacity="0.55"/><circle cx="171" cy="577" r="5" fill="#38bdf8" fill-opacity="0.55"/><circle cx="229" cy="577" r="5" fill="#38bdf8" fill-opacity="0.55"/><circle cx="287" cy="577" r="5" fill="#38bdf8" fill-opacity="0.55"/><circle cx="345" cy="577" r="5" fill="#38bdf8" fill-opacity="0.55"/><circle cx="403" cy="577" r="5" fill="#38bdf8" fill-opacity="0.55"/><circle cx="461" cy="577" r="5" fill="#38bdf8" fill-opacity="0.55"/><circle cx="519" cy="577" r="5" fill="#38bdf8" fill-opacity="0.55"/><circle cx="577" cy="577" r="5" fill="#38bdf8" fill-opacity="0.55"/><circle cx="635" cy="577" r="5" fill="#38bdf8" fill-opacity="0.55"/><circle cx="693" cy="577" r="5" fill="#38bdf8" fill-opacity="0.55"/><circle cx="751" cy="577" r="5" fill="#38bdf8" fill-opacity="0.55"/></g>
  <rect x="190" y="80" width="820" height="640" rx="8" fill="none" stroke="#e2e8f0" stroke-width="6"/>
  <text x="600" y="744" fill="#f8fafc" font-family="Arial, sans-serif" font-size="42" font-weight="700" text-anchor="middle">Isometric Dots</text>
</svg>
