<svg xmlns="http://www.w3.org/2000/svg" width="1200" height="800" viewBox="0 0 1200 800" role="img" aria-label="Music Staff preview">
  <rect width="1200" height="800" fill="#0f172a"/>
  <rect x="190" y="80" width="820" height="640" rx="8" fill="#ffffff"/>
  <g transform="translate(190 80)"><g><path d="M55 70H765" stroke="#0f172a" stroke-opacity="0.72" stroke-width="2"/><path d="M55 78H765" stroke="#0f172a" stroke-opacity="0.72" stroke-width="2"/><path d="M55 86H765" stroke="#0f172a" stroke-opacity="0.72" stroke-width="2"/><path d="M55 94H765" stroke="#0f172a" stroke-opacity="0.72" stroke-width="2"/><path d="M55 102H765" stroke="#0f172a" stroke-opacity="0.72" stroke-width="2"/><path d="M55 152H765" stroke="#0f172a" stroke-opacity="0.72" stroke-width="2"/><path d="M55 160H765" stroke="#0f172a" stroke-opacity="0.72" stroke-width="2"/><path d="M55 168H765" stroke="#0f172a" stroke-opacity="0.72" stroke-width="2"/><path d="M55 176H765" stroke="#0f172a" stroke-opacity="0.72" stroke-width="2"/><path d="M55 184H765" stroke="#0f172a" stroke-opacity="0.72" stroke-width="2"/><path d="M55 234H765" stroke="#0f172a" stroke-opacity="0.72" stroke-width="2"/><path d="M55 242H765" stroke="#0f172a" stroke-opacity="0.72" stroke-width="2"/><path d="M55 250H765" stroke="#0f172a" stroke-opacity="0.72" stroke-width="2"/><path d="M55 258H765" stroke="#0f172a" stroke-opacity="0.72" stroke-width="2"/><path d="M55 266H765" stroke="#0f172a" stroke-opacity="0.72" stroke-width="2"/><path d="M55 316H765" stroke="#0f172a" stroke-opacity="0.72" stroke-width="2"/><path d="M55 324H765" stroke="#0f172a" stroke-opacity="0.72" stroke-width="2"/><path d="M55 332H765" stroke="#0f172a" stroke-opacity="0.72" stroke-width="2"/><path d="M55 340H765" stroke="#0f172a" stroke-opacity="0.72" stroke-width="2"/><path d="M55 348H765" stroke="#0f172a" stroke-opacity="0.72" stroke-width="2"/><path d="M55 398H765" stroke="#0f172a" stroke-opacity="0.72" stroke-width="2"/><path d="M55 406H765" stroke="#0f172a" stroke-opacity="0.72" stroke-width="2"/><path d="M55 414H765" stroke="#0f172a" stroke-opacity="0.72" stroke-width="2"/><path d="M55 422H765" stroke="#0f172a" stroke-opacity="0.72" stroke-width="2"/><path d="M55 430H765" stroke="#0f172a" stroke-opacity="0.72" stroke-width="2"/><path d="M55 480H765" stroke="#0f172a" stroke-opacity="0.72" stroke-width="2"/><path d="M55 488H765" stroke="#0f172a" stroke-opacity="0.72" stroke-width="2"/><path d="M55 496H765" stroke="#0f172a" stroke-opacity="0.72" stroke-width="2"/><path d="M55 504H765" stroke="#0f172a" stroke-opacity="0.72" stroke-width="2"/><path d="M55 512H765" stroke="#0f172a" stroke-opacity="0.72" stroke-width="2"/></g></g>
  <rect x="190" y="80" width="820" height="640" rx="8" fill="none" stroke="#e2e8f0" stroke-width="6"/>
  <text x="600" y="744" fill="#f8fafc" font-family="Arial, sans-serif" font-size="42" font-weight="700" text-anchor="middle">Music Staff</text>
</svg>
