<svg xmlns="http://www.w3.org/2000/svg" width="1200" height="800" viewBox="0 0 1200 800" role="img" aria-label="Perspective Grid preview">
  <rect width="1200" height="800" fill="#0f172a"/>
  <rect x="190" y="80" width="820" height="640" rx="8" fill="#ffffff"/>
  <g transform="translate(190 80)"><g><path d="M40 320H780" stroke="#38bdf8" stroke-opacity="0.45" stroke-width="3"/><path d="M410 320L1230 320" stroke="#38bdf8" stroke-opacity="0.28" stroke-width="2"/><path d="M410 320L1209.4408879890952 462.4133977320412" stroke="#38bdf8" stroke-opacity="0.28" stroke-width="2"/><path d="M410 320L1148.7944716799836 597.6855930352372" stroke="#38bdf8" stroke-opacity="0.28" stroke-width="2"/><path d="M410 320L1051.1018156237844 719.0334731895894" stroke="#38bdf8" stroke-opacity="0.28" stroke-width="2"/><path d="M410 320L921.2616375241615 820.3721487795391" stroke="#38bdf8" stroke-opacity="0.28" stroke-width="2"/><path d="M410 320L765.7846660763977 896.6200754575483" stroke="#38bdf8" stroke-opacity="0.28" stroke-width="2"/><path d="M410 320L592.4671658441779 943.9538637963672" stroke="#38bdf8" stroke-opacity="0.28" stroke-width="2"/><path d="M410 320L410.00000000000006 960" stroke="#38bdf8" stroke-opacity="0.28" stroke-width="2"/><path d="M410 320L227.53283415582223 943.9538637963672" stroke="#38bdf8" stroke-opacity="0.28" stroke-width="2"/><path d="M410 320L54.21533392360237 896.6200754575483" stroke="#38bdf8" stroke-opacity="0.28" stroke-width="2"/><path d="M410 320L-101.26163752416147 820.3721487795392" stroke="#38bdf8" stroke-opacity="0.28" stroke-width="2"/><path d="M410 320L-231.1018156237842 719.0334731895897" stroke="#38bdf8" stroke-opacity="0.28" stroke-width="2"/><path d="M410 320L-328.79447167998364 597.6855930352373" stroke="#38bdf8" stroke-opacity="0.28" stroke-width="2"/><path d="M410 320L-389.4408879890955 462.413397732041" stroke="#38bdf8" stroke-opacity="0.28" stroke-width="2"/><path d="M410 320L-410 320.00000000000006" stroke="#38bdf8" stroke-opacity="0.28" stroke-width="2"/><path d="M410 320L-389.4408879890955 177.58660226795914" stroke="#38bdf8" stroke-opacity="0.28" stroke-width="2"/><path d="M410 320L-328.79447167998364 42.314406964762895" stroke="#38bdf8" stroke-opacity="0.28" stroke-width="2"/><path d="M410 320L-231.1018156237842 -79.03347318958964" stroke="#38bdf8" stroke-opacity="0.28" stroke-width="2"/><path d="M410 320L-101.26163752416164 -180.37214877953897" stroke="#38bdf8" stroke-opacity="0.28" stroke-width="2"/><path d="M410 320L54.2153339236022 -256.6200754575482" stroke="#38bdf8" stroke-opacity="0.28" stroke-width="2"/><path d="M410 320L227.53283415582203 -303.95386379636716" stroke="#38bdf8" stroke-opacity="0.28" stroke-width="2"/><path d="M410 320L409.99999999999983 -320" stroke="#38bdf8" stroke-opacity="0.28" stroke-width="2"/><path d="M410 320L592.467165844177 -303.9538637963673" stroke="#38bdf8" stroke-opacity="0.28" stroke-width="2"/><path d="M410 320L765.7846660763976 -256.6200754575483" stroke="#38bdf8" stroke-opacity="0.28" stroke-width="2"/><path d="M410 320L921.2616375241614 -180.37214877953915" stroke="#38bdf8" stroke-opacity="0.28" stroke-width="2"/><path d="M410 320L1051.1018156237842 -79.03347318958959" stroke="#38bdf8" stroke-opacity="0.28" stroke-width="2"/><path d="M410 320L1148.7944716799839 42.31440696476318" stroke="#38bdf8" stroke-opacity="0.28" stroke-width="2"/><path d="M410 320L1209.4408879890952 177.58660226795863" stroke="#38bdf8" stroke-opacity="0.28" stroke-width="2"/></g></g>
  <rect x="190" y="80" width="820" height="640" rx="8" fill="none" stroke="#e2e8f0" stroke-width="6"/>
  <text x="600" y="744" fill="#f8fafc" font-family="Arial, sans-serif" font-size="42" font-weight="700" text-anchor="middle">Perspective Grid</text>
</svg>
